<svg xmlns="http://www.w3.org/2000/svg" viewBox="0 0 450 450"><defs><style>.cls-1{fill:#282c30;}.cls-1,.cls-2{stroke:#000;stroke-miterlimit:10;stroke-width:0.25px;}.cls-2{fill:#edeade;}</style></defs><g id="Livello_2" data-name="Livello 2"><circle class="cls-1" cx="224.31" cy="224.22" r="219.22"/><path class="cls-2" d="M382.45,204.63S356.07,160,271.83,137.47L258.15,36.4l-49.46,90.26-.95-.09c-5.18-.44-125.93-1.1-175.44,58,0,0,58.69-40.72,164.61-36.42L104.6,316.62l.67.36,111-167.49a316.45,316.45,0,0,1,45.94,8.36l35.24,168.57L275.09,161.55c27.83,8.72,58,23.1,80.92,46.83,57.23,59.13,6.47,109.87,0,116-42.28,40.27-111.78,52.33-111.78,52.33s64.25-.82,114.48-35.63c11.58-9,43.07-37,47-67C413.24,235.12,382.45,204.63,382.45,204.63ZM229.77,129.06l20-30.27,7.35,35.13C248.58,132.05,239.45,130.41,229.77,129.06Z"/></g></svg>