<svg xmlns="http://www.w3.org/2000/svg" viewBox="0 0 673.04 544.7"><defs><style>.cls-1{fill:#fff;}.cls-1,.cls-2{stroke:#000;stroke-miterlimit:10;stroke-width:0.25px;}.cls-2{fill:#1b1b1b;}</style></defs><g id="Livello_2" data-name="Livello 2"><circle class="cls-1" cx="336.52" cy="270.88" r="186.73"/><path class="cls-2" d="M471.23,254.19s-22.47-38-94.23-57.2l-11.65-86.1-42.13,76.89-.81-.08c-4.41-.38-107.27-.93-149.44,49.41,0,0,50-34.69,140.22-31l-78.63,143.5.57.31,94.51-142.66a269.56,269.56,0,0,1,39.13,7.11l30,143.59-19-140.43c23.71,7.42,49.36,19.67,68.93,39.89,48.74,50.37,5.51,93.59,0,98.84-36,34.3-95.22,44.57-95.22,44.57s54.73-.7,97.52-30.35c9.86-7.64,36.69-31.51,40-57.1C497.45,280.16,471.23,254.19,471.23,254.19Zm-130-64.37L358.25,164,364.51,194C357.19,192.37,349.42,191,341.18,189.82Z"/></g></svg>